STARTFONT 2.1
COMMENT
COMMENT Converted from OpenType font "UbuntuMono-Regular.ttf" by "otf2bdf 3.0".
COMMENT
FONT -FreeType-ubuntu mono-Medium-R-Normal--28-200-100-100-P-105-Windows-cp1252
SIZE 20 100 100
FONTBOUNDINGBOX 14 29 0 -5
STARTPROPERTIES 19
FOUNDRY "FreeType"
FAMILY_NAME "ubuntu mono"
WEIGHT_NAME "Medium"
SLANT "R"
SETWIDTH_NAME "Normal"
ADD_STYLE_NAME ""
PIXEL_SIZE 28
POINT_SIZE 200
RESOLUTION_X 100
RESOLUTION_Y 100
SPACING "P"
AVERAGE_WIDTH 105
CHARSET_REGISTRY "Windows"
CHARSET_ENCODING "cp1252"
FONT_ASCENT 23
FONT_DESCENT 4
COPYRIGHT "Copyright 2011 Canonical Ltd.  Licensed under the Ubuntu Font Licence 1.0"
_OTF_FONTFILE "UbuntuMono-Regular.ttf"
_OTF_PSNAME "UbuntuMono-Regular"
ENDPROPERTIES
CHARS 223
STARTCHAR 0000
ENCODING 157
SWIDTH 504 0
DWIDTH 14 0
BBX 0 0 0 0
BITMAP
ENDCHAR
STARTCHAR 0008
ENCODING 8
SWIDTH 504 0
DWIDTH 14 0
BBX 0 0 0 0
BITMAP
ENDCHAR
STARTCHAR 0009
ENCODING 9
SWIDTH 504 0
DWIDTH 14 0
BBX 0 0 0 0
BITMAP
ENDCHAR
STARTCHAR 000D
ENCODING 13
SWIDTH 504 0
DWIDTH 14 0
BBX 0 0 0 0
BITMAP
ENDCHAR
STARTCHAR 001D
ENCODING 29
SWIDTH 504 0
DWIDTH 14 0
BBX 0 0 0 0
BITMAP
ENDCHAR
STARTCHAR 0020
ENCODING 32
SWIDTH 504 0
DWIDTH 14 0
BBX 0 0 0 0
BITMAP
ENDCHAR
STARTCHAR 0021
ENCODING 33
SWIDTH 504 0
DWIDTH 14 0
BBX 4 17 5 0
BITMAP
60
60
60
60
60
60
60
60
60
60
60
00
00
60
F0
F0
60
ENDCHAR
STARTCHAR 0022
ENCODING 34
SWIDTH 504 0
DWIDTH 14 0
BBX 6 7 4 12
BITMAP
CC
CC
CC
CC
CC
84
84
ENDCHAR
STARTCHAR 0023
ENCODING 35
SWIDTH 504 0
DWIDTH 14 0
BBX 12 17 1 0
BITMAP
0C60
0C60
1C60
18E0
FFF0
FFF0
18C0
38C0
30C0
3180
3180
FFF0
FFF0
7180
6380
6300
6300
ENDCHAR
STARTCHAR 0024
ENCODING 36
SWIDTH 504 0
DWIDTH 14 0
BBX 11 22 2 -3
BITMAP
0C00
0C00
0C00
3F80
7F80
E080
C000
C000
E000
F800
7E00
1F80
03C0
01C0
00E0
00C0
81C0
FF80
7F00
0C00
0C00
0C00
ENDCHAR
STARTCHAR 0025
ENCODING 37
SWIDTH 504 0
DWIDTH 14 0
BBX 14 17 0 0
BITMAP
3818
6C30
4430
4660
C6C0
46C0
4580
6D80
3B70
06D8
0688
0D88
198C
1988
3088
30D8
6070
ENDCHAR
STARTCHAR 0026
ENCODING 38
SWIDTH 504 0
DWIDTH 14 0
BBX 12 17 1 0
BITMAP
1E00
3F80
7180
6180
6180
7380
3700
3E00
3C60
7E60
E760
C3E0
C1C0
C1C0
E3E0
7F70
3E30
ENDCHAR
STARTCHAR 0027
ENCODING 39
SWIDTH 504 0
DWIDTH 14 0
BBX 2 7 6 12
BITMAP
C0
C0
C0
C0
C0
C0
C0
ENDCHAR
STARTCHAR 0028
ENCODING 40
SWIDTH 504 0
DWIDTH 14 0
BBX 8 22 3 -5
BITMAP
02
07
0E
1C
38
70
60
60
E0
E0
C0
C0
E0
E0
60
60
70
38
1C
0E
07
02
ENDCHAR
STARTCHAR 0029
ENCODING 41
SWIDTH 504 0
DWIDTH 14 0
BBX 8 22 3 -5
BITMAP
40
E0
70
38
1C
0C
06
06
07
07
03
03
07
07
06
06
0E
1C
38
70
E0
40
ENDCHAR
STARTCHAR 002A
ENCODING 42
SWIDTH 504 0
DWIDTH 14 0
BBX 10 10 2 7
BITMAP
0C00
0C00
CCC0
FFC0
7F80
1E00
3F00
3300
7380
2100
ENDCHAR
STARTCHAR 002B
ENCODING 43
SWIDTH 504 0
DWIDTH 14 0
BBX 12 12 1 1
BITMAP
0600
0600
0600
0600
0600
FFF0
FFF0
0600
0600
0600
0600
0600
ENDCHAR
STARTCHAR 002C
ENCODING 44
SWIDTH 504 0
DWIDTH 14 0
BBX 6 8 4 -4
BITMAP
38
3C
3C
3C
18
38
F0
C0
ENDCHAR
STARTCHAR 002D
ENCODING 45
SWIDTH 504 0
DWIDTH 14 0
BBX 6 2 4 6
BITMAP
FC
FC
ENDCHAR
STARTCHAR 002E
ENCODING 46
SWIDTH 504 0
DWIDTH 14 0
BBX 4 4 5 0
BITMAP
60
F0
F0
60
ENDCHAR
STARTCHAR 002F
ENCODING 47
SWIDTH 504 0
DWIDTH 14 0
BBX 10 25 2 -5
BITMAP
00C0
01C0
0180
0180
0380
0300
0300
0700
0600
0600
0E00
0E00
0C00
0C00
1C00
1800
1800
3800
3000
3000
7000
6000
6000
E000
C000
ENDCHAR
STARTCHAR 0030
ENCODING 48
SWIDTH 504 0
DWIDTH 14 0
BBX 12 17 1 0
BITMAP
0F00
3FC0
30C0
70E0
6060
6060
E670
EF70
EF70
E670
E070
6060
6060
70E0
30C0
3FC0
0F00
ENDCHAR
STARTCHAR 0031
ENCODING 49
SWIDTH 504 0
DWIDTH 14 0
BBX 10 17 2 0
BITMAP
0600
1E00
7E00
F600
4600
0600
0600
0600
0600
0600
0600
0600
0600
0600
0600
7FC0
7FC0
ENDCHAR
STARTCHAR 0032
ENCODING 50
SWIDTH 504 0
DWIDTH 14 0
BBX 10 17 2 0
BITMAP
3E00
FF80
E380
81C0
01C0
01C0
0180
0380
0700
0E00
1C00
3800
7000
6000
E000
FFC0
FFC0
ENDCHAR
STARTCHAR 0033
ENCODING 51
SWIDTH 504 0
DWIDTH 14 0
BBX 10 17 2 0
BITMAP
3E00
FF80
4380
01C0
01C0
0180
0380
1F00
1F80
03C0
00C0
00C0
00C0
00C0
81C0
FF80
7E00
ENDCHAR
STARTCHAR 0034
ENCODING 52
SWIDTH 504 0
DWIDTH 14 0
BBX 12 17 1 0
BITMAP
01C0
03C0
03C0
06C0
0CC0
1CC0
18C0
30C0
70C0
60C0
C0C0
FFF0
FFF0
00C0
00C0
00C0
00C0
ENDCHAR
STARTCHAR 0035
ENCODING 53
SWIDTH 504 0
DWIDTH 14 0
BBX 10 17 2 0
BITMAP
3FC0
7FC0
7000
6000
6000
6000
7E00
7F00
0780
01C0
00C0
00C0
00C0
00C0
81C0
FF80
7E00
ENDCHAR
STARTCHAR 0036
ENCODING 54
SWIDTH 504 0
DWIDTH 14 0
BBX 11 17 2 0
BITMAP
0380
0FC0
3C00
7000
6000
E000
DF00
FF80
C1C0
C0C0
C0E0
C0E0
C0C0
E0C0
E1C0
7F80
1F00
ENDCHAR
STARTCHAR 0037
ENCODING 55
SWIDTH 504 0
DWIDTH 14 0
BBX 11 17 2 0
BITMAP
FFE0
FFE0
00C0
01C0
0380
0300
0700
0600
0E00
0C00
0C00
1C00
1C00
1800
1800
3800
3800
ENDCHAR
STARTCHAR 0038
ENCODING 56
SWIDTH 504 0
DWIDTH 14 0
BBX 12 17 1 0
BITMAP
0F80
3FC0
70E0
6060
6060
6060
70C0
3DC0
1F80
33E0
60E0
6070
E070
6060
70E0
3FC0
1F80
ENDCHAR
STARTCHAR 0039
ENCODING 57
SWIDTH 504 0
DWIDTH 14 0
BBX 12 17 1 0
BITMAP
1F00
3FC0
70C0
60E0
E060
E060
E060
6070
7060
3FE0
1FE0
0060
00C0
01C0
0780
7F00
7800
ENDCHAR
STARTCHAR 003A
ENCODING 58
SWIDTH 504 0
DWIDTH 14 0
BBX 4 13 5 0
BITMAP
60
F0
F0
60
00
00
00
00
00
60
F0
F0
60
ENDCHAR
STARTCHAR 003B
ENCODING 59
SWIDTH 504 0
DWIDTH 14 0
BBX 5 17 4 -4
BITMAP
30
78
78
30
00
00
00
00
00
30
78
78
38
38
70
E0
C0
ENDCHAR
STARTCHAR 003C
ENCODING 60
SWIDTH 504 0
DWIDTH 14 0
BBX 12 11 1 2
BITMAP
0020
00F0
07E0
1F00
FC00
E000
FC00
1F00
07E0
00F0
0020
ENDCHAR
STARTCHAR 003D
ENCODING 61
SWIDTH 504 0
DWIDTH 14 0
BBX 12 7 1 4
BITMAP
FFF0
FFF0
0000
0000
0000
FFF0
FFF0
ENDCHAR
STARTCHAR 003E
ENCODING 62
SWIDTH 504 0
DWIDTH 14 0
BBX 11 11 2 2
BITMAP
8000
F000
7C00
1F00
03E0
00E0
03E0
1F00
7C00
F000
8000
ENDCHAR
STARTCHAR 003F
ENCODING 63
SWIDTH 504 0
DWIDTH 14 0
BBX 8 17 3 0
BITMAP
7C
FF
87
03
03
03
06
0C
18
38
30
00
00
38
38
38
38
ENDCHAR
STARTCHAR 0040
ENCODING 64
SWIDTH 504 0
DWIDTH 14 0
BBX 12 21 1 -4
BITMAP
0780
1FE0
3860
7070
6030
6030
E1F0
E7F0
C630
CE30
CC30
CC30
EE30
E630
67F0
61F0
7000
3800
1C00
0FE0
07E0
ENDCHAR
STARTCHAR 0041
ENCODING 65
SWIDTH 504 0
DWIDTH 14 0
BBX 14 17 0 0
BITMAP
0780
0780
0780
0DC0
0CC0
0CC0
18E0
1860
1860
3870
3030
3FF0
7FF8
6038
6018
6018
E01C
ENDCHAR
STARTCHAR 0042
ENCODING 66
SWIDTH 504 0
DWIDTH 14 0
BBX 11 17 2 0
BITMAP
FE00
FF80
C380
C1C0
C0C0
C1C0
C380
FF00
FF80
C1C0
C0C0
C0E0
C0E0
C0C0
C1C0
FF80
FF00
ENDCHAR
STARTCHAR 0043
ENCODING 67
SWIDTH 504 0
DWIDTH 14 0
BBX 12 17 1 0
BITMAP
07C0
1FF0
3820
7000
7000
6000
E000
E000
E000
E000
E000
6000
6000
7000
3820
1FF0
07E0
ENDCHAR
STARTCHAR 0044
ENCODING 68
SWIDTH 504 0
DWIDTH 14 0
BBX 11 17 2 0
BITMAP
FC00
FF00
C380
C1C0
C0C0
C0E0
C0E0
C0E0
C060
C0E0
C0E0
C0E0
C0C0
C1C0
C380
FF00
FC00
ENDCHAR
STARTCHAR 0045
ENCODING 69
SWIDTH 504 0
DWIDTH 14 0
BBX 10 17 3 0
BITMAP
FF80
FF80
C000
C000
C000
C000
C000
FF00
FF00
C000
C000
C000
C000
C000
C000
FFC0
FFC0
ENDCHAR
STARTCHAR 0046
ENCODING 70
SWIDTH 504 0
DWIDTH 14 0
BBX 9 17 3 0
BITMAP
FF80
FF80
C000
C000
C000
C000
C000
FF00
FF00
C000
C000
C000
C000
C000
C000
C000
C000
ENDCHAR
STARTCHAR 0047
ENCODING 71
SWIDTH 504 0
DWIDTH 14 0
BBX 12 17 1 0
BITMAP
07C0
1FF0
3C20
7000
7000
6000
E000
E000
E000
E070
E070
6070
6070
7070
3870
1FF0
07E0
ENDCHAR
STARTCHAR 0048
ENCODING 72
SWIDTH 504 0
DWIDTH 14 0
BBX 12 17 1 0
BITMAP
E070
E070
E070
E070
E070
E070
E070
FFF0
FFF0
E070
E070
E070
E070
E070
E070
E070
E070
ENDCHAR
STARTCHAR 0049
ENCODING 73
SWIDTH 504 0
DWIDTH 14 0
BBX 10 17 2 0
BITMAP
FFC0
FFC0
0C00
0C00
0C00
0C00
0C00
0C00
0C00
0C00
0C00
0C00
0C00
0C00
0C00
FFC0
FFC0
ENDCHAR
STARTCHAR 004A
ENCODING 74
SWIDTH 504 0
DWIDTH 14 0
BBX 10 17 2 0
BITMAP
3FC0
3FC0
01C0
01C0
01C0
01C0
01C0
01C0
01C0
01C0
01C0
01C0
01C0
01C0
8380
FF00
7E00
ENDCHAR
STARTCHAR 004B
ENCODING 75
SWIDTH 504 0
DWIDTH 14 0
BBX 12 17 2 0
BITMAP
C0E0
C1C0
C380
C380
C700
CE00
DC00
F800
F800
DC00
CE00
C700
C380
C1C0
C0C0
C0E0
C070
ENDCHAR
STARTCHAR 004C
ENCODING 76
SWIDTH 504 0
DWIDTH 14 0
BBX 10 17 3 0
BITMAP
C000
C000
C000
C000
C000
C000
C000
C000
C000
C000
C000
C000
C000
C000
C000
FFC0
FFC0
ENDCHAR
STARTCHAR 004D
ENCODING 77
SWIDTH 504 0
DWIDTH 14 0
BBX 12 17 1 0
BITMAP
6060
70E0
70E0
58A0
59A0
59A0
CF30
CF30
CF30
C630
C030
C030
C030
C030
C030
C030
C030
ENDCHAR
STARTCHAR 004E
ENCODING 78
SWIDTH 504 0
DWIDTH 14 0
BBX 10 17 2 0
BITMAP
C0C0
E0C0
E0C0
F0C0
F0C0
D8C0
D8C0
CCC0
CCC0
C6C0
C6C0
C3C0
C3C0
C1C0
C1C0
C1C0
C0C0
ENDCHAR
STARTCHAR 004F
ENCODING 79
SWIDTH 504 0
DWIDTH 14 0
BBX 12 17 1 0
BITMAP
1F80
3FC0
70E0
6060
E070
C030
C030
C030
C030
C030
C030
C030
E070
6060
70E0
3FC0
1F80
ENDCHAR
STARTCHAR 0050
ENCODING 80
SWIDTH 504 0
DWIDTH 14 0
BBX 11 17 2 0
BITMAP
FF00
FF80
C1C0
C0C0
C0E0
C0E0
C0E0
C0C0
C1C0
FF80
FE00
C000
C000
C000
C000
C000
C000
ENDCHAR
STARTCHAR 0051
ENCODING 81
SWIDTH 504 0
DWIDTH 14 0
BBX 12 21 1 -4
BITMAP
1F80
3FC0
70E0
6060
E070
C030
C030
C030
C030
C030
C030
C030
E070
6060
70E0
3FC0
1F80
0600
0780
03E0
0060
ENDCHAR
STARTCHAR 0052
ENCODING 82
SWIDTH 504 0
DWIDTH 14 0
BBX 11 17 2 0
BITMAP
FE00
FF80
C380
C1C0
C0C0
C0C0
C0C0
C1C0
C380
FF00
FE00
C700
C300
C180
C1C0
C0C0
C0E0
ENDCHAR
STARTCHAR 0053
ENCODING 83
SWIDTH 504 0
DWIDTH 14 0
BBX 10 17 2 0
BITMAP
1F00
7FC0
E080
C000
C000
E000
F000
7C00
1F00
0780
01C0
00C0
00C0
00C0
C1C0
FF80
7F00
ENDCHAR
STARTCHAR 0054
ENCODING 84
SWIDTH 504 0
DWIDTH 14 0
BBX 12 17 1 0
BITMAP
FFF0
FFF0
0600
0600
0600
0600
0600
0600
0600
0600
0600
0600
0600
0600
0600
0600
0600
ENDCHAR
STARTCHAR 0055
ENCODING 85
SWIDTH 504 0
DWIDTH 14 0
BBX 12 17 1 0
BITMAP
E070
E070
E070
E070
E070
E070
E070
E070
E070
E070
E070
E070
E070
6060
70E0
3FC0
1F80
ENDCHAR
STARTCHAR 0056
ENCODING 86
SWIDTH 504 0
DWIDTH 14 0
BBX 14 17 0 0
BITMAP
E01C
6018
6018
7038
3038
3030
3830
3870
1860
1860
1CE0
0CC0
0CC0
0FC0
0780
0780
0780
ENDCHAR
STARTCHAR 0057
ENCODING 87
SWIDTH 504 0
DWIDTH 14 0
BBX 12 17 1 0
BITMAP
C030
C030
C030
C030
C030
C030
C030
C630
CF30
CF30
CF20
59A0
59A0
51A0
70E0
70E0
6060
ENDCHAR
STARTCHAR 0058
ENCODING 88
SWIDTH 504 0
DWIDTH 14 0
BBX 12 17 1 0
BITMAP
E070
6060
70E0
38C0
1980
1F80
0F00
0F00
0600
0F00
1F80
1980
39C0
30E0
60E0
E070
C030
ENDCHAR
STARTCHAR 0059
ENCODING 89
SWIDTH 504 0
DWIDTH 14 0
BBX 12 17 1 0
BITMAP
C030
E030
E070
6060
70E0
38C0
39C0
1F80
0F00
0F00
0600
0600
0600
0600
0600
0600
0600
ENDCHAR
STARTCHAR 005A
ENCODING 90
SWIDTH 504 0
DWIDTH 14 0
BBX 11 17 2 0
BITMAP
FFE0
FFE0
01C0
0180
0380
0700
0600
0E00
1C00
1800
3800
3000
7000
6000
C000
FFE0
FFE0
ENDCHAR
STARTCHAR 005B
ENCODING 91
SWIDTH 504 0
DWIDTH 14 0
BBX 7 22 4 -5
BITMAP
FE
FE
C0
C0
C0
C0
C0
C0
C0
C0
C0
C0
C0
C0
C0
C0
C0
C0
C0
C0
FE
FE
ENDCHAR
STARTCHAR 005C
ENCODING 92
SWIDTH 504 0
DWIDTH 14 0
BBX 10 25 2 -5
BITMAP
C000
E000
6000
6000
7000
3000
3000
3800
1800
1800
1C00
0C00
0C00
0C00
0E00
0600
0600
0700
0300
0300
0380
0180
0180
01C0
00C0
ENDCHAR
STARTCHAR 005D
ENCODING 93
SWIDTH 504 0
DWIDTH 14 0
BBX 7 22 3 -5
BITMAP
FE
FE
06
06
06
06
06
06
06
06
06
06
06
06
06
06
06
06
06
06
FE
FE
ENDCHAR
STARTCHAR 005E
ENCODING 94
SWIDTH 504 0
DWIDTH 14 0
BBX 12 9 1 8
BITMAP
0600
0F00
1F80
1980
39C0
30C0
70E0
E070
4020
ENDCHAR
STARTCHAR 005F
ENCODING 95
SWIDTH 504 0
DWIDTH 14 0
BBX 14 2 0 -5
BITMAP
FFFC
FFFC
ENDCHAR
STARTCHAR 0060
ENCODING 96
SWIDTH 504 0
DWIDTH 14 0
BBX 4 5 5 15
BITMAP
80
C0
60
30
10
ENDCHAR
STARTCHAR 0061
ENCODING 97
SWIDTH 504 0
DWIDTH 14 0
BBX 10 13 2 0
BITMAP
7F00
7F80
01C0
00C0
00C0
3FC0
7FC0
E0C0
C0C0
C0C0
E0C0
FFC0
3FC0
ENDCHAR
STARTCHAR 0062
ENCODING 98
SWIDTH 504 0
DWIDTH 14 0
BBX 11 19 2 0
BITMAP
C000
C000
C000
C000
C000
C000
DF00
FF80
E1C0
C0C0
C0E0
C0E0
C0E0
C0E0
C0E0
C0C0
C1C0
FF80
FE00
ENDCHAR
STARTCHAR 0063
ENCODING 99
SWIDTH 504 0
DWIDTH 14 0
BBX 12 13 1 0
BITMAP
0FE0
1FE0
3820
7000
6000
E000
E000
E000
6000
7000
3820
3FF0
0FE0
ENDCHAR
STARTCHAR 0064
ENCODING 100
SWIDTH 504 0
DWIDTH 14 0
BBX 11 19 1 0
BITMAP
0060
0060
0060
0060
0060
0060
1F60
3FE0
70E0
6060
E060
E060
E060
E060
E060
6060
7060
3FE0
0FC0
ENDCHAR
STARTCHAR 0065
ENCODING 101
SWIDTH 504 0
DWIDTH 14 0
BBX 12 13 1 0
BITMAP
0F80
3FC0
70E0
6060
E070
FFF0
FFF0
C000
E000
6000
7820
3FE0
0FC0
ENDCHAR
STARTCHAR 0066
ENCODING 102
SWIDTH 504 0
DWIDTH 14 0
BBX 11 19 2 0
BITMAP
07E0
0FE0
1C20
1800
1800
1800
FFC0
FFC0
1800
1800
1800
1800
1800
1800
1800
1800
1800
1800
1800
ENDCHAR
STARTCHAR 0067
ENCODING 103
SWIDTH 504 0
DWIDTH 14 0
BBX 11 18 1 -5
BITMAP
0FC0
3FE0
7060
6060
E060
E060
E060
E060
E060
6060
70E0
3FE0
1F60
0060
00E0
41C0
7FC0
7F00
ENDCHAR
STARTCHAR 0068
ENCODING 104
SWIDTH 504 0
DWIDTH 14 0
BBX 10 19 2 0
BITMAP
C000
C000
C000
C000
C000
C000
FF00
FF80
C1C0
C1C0
C0C0
C0C0
C0C0
C0C0
C0C0
C0C0
C0C0
C0C0
C0C0
ENDCHAR
STARTCHAR 0069
ENCODING 105
SWIDTH 504 0
DWIDTH 14 0
BBX 10 18 2 0
BITMAP
3800
3C00
1800
0000
0000
FC00
FC00
1C00
1C00
1C00
1C00
1C00
1C00
1C00
1C00
0C40
0FC0
07C0
ENDCHAR
STARTCHAR 006A
ENCODING 106
SWIDTH 504 0
DWIDTH 14 0
BBX 9 23 2 -5
BITMAP
0700
0700
0700
0000
0000
7F80
7F80
0380
0380
0380
0380
0380
0380
0380
0380
0380
0380
0380
0380
0380
0300
FF00
7E00
ENDCHAR
STARTCHAR 006B
ENCODING 107
SWIDTH 504 0
DWIDTH 14 0
BBX 11 19 2 0
BITMAP
C000
C000
C000
C000
C000
C000
C0C0
C1C0
C380
C600
DC00
F800
F800
DC00
C600
C380
C180
C0C0
C0E0
ENDCHAR
STARTCHAR 006C
ENCODING 108
SWIDTH 504 0
DWIDTH 14 0
BBX 10 19 2 0
BITMAP
FC00
FC00
1C00
1C00
1C00
1C00
1C00
1C00
1C00
1C00
1C00
1C00
1C00
1C00
1C00
1C00
0C40
0FC0
07C0
ENDCHAR
STARTCHAR 006D
ENCODING 109
SWIDTH 504 0
DWIDTH 14 0
BBX 12 13 1 0
BITMAP
79C0
FFE0
C670
C630
C630
C630
C630
C630
C030
C030
C030
C030
C030
ENDCHAR
STARTCHAR 006E
ENCODING 110
SWIDTH 504 0
DWIDTH 14 0
BBX 10 13 2 0
BITMAP
7F00
FF80
C1C0
C1C0
C0C0
C0C0
C0C0
C0C0
C0C0
C0C0
C0C0
C0C0
C0C0
ENDCHAR
STARTCHAR 006F
ENCODING 111
SWIDTH 504 0
DWIDTH 14 0
BBX 12 13 1 0
BITMAP
0F00
3FC0
70E0
6060
E070
E070
E070
E070
E070
6060
70E0
3FC0
0F00
ENDCHAR
STARTCHAR 0070
ENCODING 112
SWIDTH 504 0
DWIDTH 14 0
BBX 11 18 2 -5
BITMAP
7E00
FF80
C1C0
C0C0
C0E0
C0E0
C0E0
C0E0
C0E0
C0C0
E1C0
FF80
DF00
C000
C000
C000
C000
C000
ENDCHAR
STARTCHAR 0071
ENCODING 113
SWIDTH 504 0
DWIDTH 14 0
BBX 11 18 1 -5
BITMAP
0FC0
3FE0
7060
6060
E060
E060
E060
E060
E060
6060
70E0
3FE0
1F60
0060
0060
0060
0060
0060
ENDCHAR
STARTCHAR 0072
ENCODING 114
SWIDTH 504 0
DWIDTH 14 0
BBX 9 13 3 0
BITMAP
3F80
FF80
C000
C000
C000
C000
C000
C000
C000
C000
C000
C000
C000
ENDCHAR
STARTCHAR 0073
ENCODING 115
SWIDTH 504 0
DWIDTH 14 0
BBX 10 13 2 0
BITMAP
3F80
7F80
E080
C000
E000
7C00
3F00
0780
01C0
00C0
C1C0
FF80
7F00
ENDCHAR
STARTCHAR 0074
ENCODING 116
SWIDTH 504 0
DWIDTH 14 0
BBX 10 17 2 0
BITMAP
1800
1800
1800
1800
FFC0
FFC0
1800
1800
1800
1800
1800
1800
1800
1800
1C40
1FC0
07C0
ENDCHAR
STARTCHAR 0075
ENCODING 117
SWIDTH 504 0
DWIDTH 14 0
BBX 10 13 2 0
BITMAP
C0C0
C0C0
C0C0
C0C0
C0C0
C0C0
C0C0
C0C0
C0C0
E0C0
E0C0
7FC0
3FC0
ENDCHAR
STARTCHAR 0076
ENCODING 118
SWIDTH 504 0
DWIDTH 14 0
BBX 12 13 1 0
BITMAP
C030
E070
6060
6060
70E0
30C0
30C0
3980
1980
1F80
0F00
0F00
0600
ENDCHAR
STARTCHAR 0077
ENCODING 119
SWIDTH 504 0
DWIDTH 14 0
BBX 12 13 1 0
BITMAP
C030
C030
C030
C630
C630
CF30
CF30
6960
79E0
79E0
70E0
70E0
70C0
ENDCHAR
STARTCHAR 0078
ENCODING 120
SWIDTH 504 0
DWIDTH 14 0
BBX 12 13 1 0
BITMAP
E060
70E0
31C0
1980
1F00
0F00
0600
0F00
1980
39C0
70E0
6060
E070
ENDCHAR
STARTCHAR 0079
ENCODING 121
SWIDTH 504 0
DWIDTH 14 0
BBX 12 18 1 -5
BITMAP
E070
6070
7060
7060
30E0
30C0
38C0
18C0
1D80
0D80
0D80
0700
0700
0700
0600
0E00
FC00
F000
ENDCHAR
STARTCHAR 007A
ENCODING 122
SWIDTH 504 0
DWIDTH 14 0
BBX 10 13 2 0
BITMAP
FFC0
FFC0
0380
0300
0700
0E00
1C00
1800
3000
7000
6000
FFC0
FFC0
ENDCHAR
STARTCHAR 007B
ENCODING 123
SWIDTH 504 0
DWIDTH 14 0
BBX 10 25 2 -5
BITMAP
07C0
0FC0
1C00
1C00
1800
1800
1800
1800
1800
1800
1800
3800
F000
F000
1800
1800
1800
1800
1800
1800
1800
1800
1C00
0FC0
07C0
ENDCHAR
STARTCHAR 007C
ENCODING 124
SWIDTH 504 0
DWIDTH 14 0
BBX 2 25 6 -5
BITMAP
C0
C0
C0
C0
C0
C0
C0
C0
C0
C0
C0
C0
C0
C0
C0
C0
C0
C0
C0
C0
C0
C0
C0
C0
C0
ENDCHAR
STARTCHAR 007D
ENCODING 125
SWIDTH 504 0
DWIDTH 14 0
BBX 10 25 2 -5
BITMAP
F800
FC00
0E00
0E00
0600
0600
0600
0600
0600
0600
0600
0700
03C0
03C0
0600
0600
0600
0600
0600
0600
0600
0E00
0E00
FC00
F800
ENDCHAR
STARTCHAR 007E
ENCODING 126
SWIDTH 504 0
DWIDTH 14 0
BBX 12 4 1 5
BITMAP
3830
7E30
C7E0
C1C0
ENDCHAR
STARTCHAR 00A0
ENCODING 160
SWIDTH 504 0
DWIDTH 14 0
BBX 0 0 0 0
BITMAP
ENDCHAR
STARTCHAR 00A1
ENCODING 161
SWIDTH 504 0
DWIDTH 14 0
BBX 4 18 5 -5
BITMAP
60
F0
F0
60
00
00
60
60
60
60
60
60
60
60
60
60
60
60
ENDCHAR
STARTCHAR 00A2
ENCODING 162
SWIDTH 504 0
DWIDTH 14 0
BBX 11 20 1 -3
BITMAP
0300
0300
0300
0FE0
1FE0
3820
7000
6000
E000
E000
E000
6000
7000
7820
3FE0
0FE0
0300
0300
0300
0300
ENDCHAR
STARTCHAR 00A3
ENCODING 163
SWIDTH 504 0
DWIDTH 14 0
BBX 12 17 1 0
BITMAP
07E0
0FE0
1C20
1800
1800
1800
1800
1800
FFC0
FFC0
1800
1800
3800
3800
3800
3FF0
3FF0
ENDCHAR
STARTCHAR 00A4
ENCODING 164
SWIDTH 504 0
DWIDTH 14 0
BBX 12 12 1 3
BITMAP
4020
EF70
7FE0
30C0
6060
6060
6060
6060
30C0
7FE0
EF70
4020
ENDCHAR
STARTCHAR 00A5
ENCODING 165
SWIDTH 504 0
DWIDTH 14 0
BBX 12 17 1 0
BITMAP
C030
E070
6060
70E0
30C0
1980
1F80
0F00
7FE0
7FE0
0600
0600
0600
7FE0
7FE0
0600
0600
ENDCHAR
STARTCHAR 00A6
ENCODING 166
SWIDTH 504 0
DWIDTH 14 0
BBX 2 25 6 -5
BITMAP
C0
C0
C0
C0
C0
C0
C0
C0
C0
C0
00
00
00
00
00
C0
C0
C0
C0
C0
C0
C0
C0
C0
C0
ENDCHAR
STARTCHAR 00A7
ENCODING 167
SWIDTH 504 0
DWIDTH 14 0
BBX 10 21 2 -3
BITMAP
1F80
3F80
7080
6000
6000
7000
3E00
7F80
E3C0
C0C0
C0C0
E0C0
7180
3F80
1F00
0380
01C0
01C0
C180
FF80
7E00
ENDCHAR
STARTCHAR 00A8
ENCODING 168
SWIDTH 504 0
DWIDTH 14 0
BBX 8 3 3 15
BITMAP
66
E7
66
ENDCHAR
STARTCHAR 00A9
ENCODING 169
SWIDTH 504 0
DWIDTH 14 0
BBX 12 13 1 0
BITMAP
0F00
3FC0
70E0
6060
CF30
DF30
D830
DF30
CF30
6060
70E0
3FC0
0F00
ENDCHAR
STARTCHAR 00AA
ENCODING 170
SWIDTH 504 0
DWIDTH 14 0
BBX 8 8 3 9
BITMAP
7E
7E
03
3F
FF
C3
FF
7F
ENDCHAR
STARTCHAR 00AB
ENCODING 171
SWIDTH 504 0
DWIDTH 14 0
BBX 9 9 2 3
BITMAP
1080
3180
6300
E300
C600
E300
6300
3180
1080
ENDCHAR
STARTCHAR 00AC
ENCODING 172
SWIDTH 504 0
DWIDTH 14 0
BBX 12 9 1 1
BITMAP
FFF0
FFF0
0030
0030
0030
0030
0030
0030
0030
ENDCHAR
STARTCHAR 00AD
ENCODING 173
SWIDTH 504 0
DWIDTH 14 0
BBX 6 2 4 6
BITMAP
FC
FC
ENDCHAR
STARTCHAR 00AE
ENCODING 174
SWIDTH 504 0
DWIDTH 14 0
BBX 12 13 1 0
BITMAP
0F00
3FC0
70E0
6060
CF30
CFB0
C9B0
CF30
C930
6060
70E0
3FC0
0F00
ENDCHAR
STARTCHAR 00AF
ENCODING 175
SWIDTH 504 0
DWIDTH 14 0
BBX 8 2 3 16
BITMAP
FF
FF
ENDCHAR
STARTCHAR 00B0
ENCODING 176
SWIDTH 504 0
DWIDTH 14 0
BBX 6 8 4 12
BITMAP
78
FC
CC
84
84
CC
FC
78
ENDCHAR
STARTCHAR 00B1
ENCODING 177
SWIDTH 504 0
DWIDTH 14 0
BBX 12 16 1 0
BITMAP
0600
0600
0600
0600
0600
FFF0
FFF0
0600
0600
0600
0600
0600
0000
0000
FFF0
FFF0
ENDCHAR
STARTCHAR 00B2
ENCODING 178
SWIDTH 504 0
DWIDTH 14 0
BBX 8 9 3 8
BITMAP
3C
FE
46
06
0C
18
20
7F
7F
ENDCHAR
STARTCHAR 00B3
ENCODING 179
SWIDTH 504 0
DWIDTH 14 0
BBX 6 9 4 8
BITMAP
F8
FC
0C
78
7C
0C
0C
FC
F8
ENDCHAR
STARTCHAR 00B4
ENCODING 180
SWIDTH 504 0
DWIDTH 14 0
BBX 4 5 5 15
BITMAP
20
30
60
C0
80
ENDCHAR
STARTCHAR 00B5
ENCODING 181
SWIDTH 504 0
DWIDTH 14 0
BBX 10 18 2 -5
BITMAP
C0C0
C0C0
C0C0
C0C0
C0C0
C0C0
C0C0
C0C0
C0C0
E0C0
E0C0
FFC0
DF80
C000
C000
C000
C000
C000
ENDCHAR
STARTCHAR 00B6
ENCODING 182
SWIDTH 504 0
DWIDTH 14 0
BBX 12 23 1 -5
BITMAP
0FF0
3FF0
7E30
FE30
FE30
FE30
FE30
FE30
FE30
7E30
1E30
0630
0630
0630
0630
0630
0630
0630
0630
0630
0630
0630
0630
ENDCHAR
STARTCHAR 00B7
ENCODING 183
SWIDTH 504 0
DWIDTH 14 0
BBX 4 4 5 5
BITMAP
60
F0
F0
60
ENDCHAR
STARTCHAR 00B8
ENCODING 184
SWIDTH 504 0
DWIDTH 14 0
BBX 5 6 4 -5
BITMAP
10
30
30
18
78
F0
ENDCHAR
STARTCHAR 00B9
ENCODING 185
SWIDTH 504 0
DWIDTH 14 0
BBX 7 9 4 8
BITMAP
30
70
F0
30
30
30
30
FE
FE
ENDCHAR
STARTCHAR 00BA
ENCODING 186
SWIDTH 504 0
DWIDTH 14 0
BBX 9 8 2 9
BITMAP
1E00
7F80
6180
C080
4080
6180
7F80
1E00
ENDCHAR
STARTCHAR 00BB
ENCODING 187
SWIDTH 504 0
DWIDTH 14 0
BBX 9 9 3 3
BITMAP
8400
C600
6300
6300
3180
6380
E300
C600
8400
ENDCHAR
STARTCHAR 00BC
ENCODING 188
SWIDTH 504 0
DWIDTH 14 0
BBX 12 17 1 0
BITMAP
3030
F060
B060
30C0
3180
3180
3300
0300
0600
0C00
0C60
18A0
31A0
3120
63F0
6020
C020
ENDCHAR
STARTCHAR 00BD
ENCODING 189
SWIDTH 504 0
DWIDTH 14 0
BBX 13 17 1 0
BITMAP
3030
7060
F060
30C0
3180
3180
3300
0600
0600
0C00
0DE0
1830
3030
3070
60E0
C1C0
C1F8
ENDCHAR
STARTCHAR 00BE
ENCODING 190
SWIDTH 504 0
DWIDTH 14 0
BBX 12 17 1 0
BITMAP
F030
1820
1860
70C0
18C0
1980
F300
0300
0600
0400
0C60
18A0
19A0
3120
63F0
6020
C020
ENDCHAR
STARTCHAR 00BF
ENCODING 191
SWIDTH 504 0
DWIDTH 14 0
BBX 8 18 3 -5
BITMAP
1C
1C
1E
1C
00
00
0C
0C
18
38
70
E0
C0
C0
C0
E1
FF
3E
ENDCHAR
STARTCHAR 00C0
ENCODING 192
SWIDTH 504 0
DWIDTH 14 0
BBX 14 24 0 0
BITMAP
0200
0600
0300
0180
0080
0000
0000
0780
0780
0780
0DC0
0CC0
0CC0
18E0
1860
1860
3870
3030
3FF0
7FF8
6038
6018
6018
E01C
ENDCHAR
STARTCHAR 00C1
ENCODING 193
SWIDTH 504 0
DWIDTH 14 0
BBX 14 24 0 0
BITMAP
0100
0180
0300
0600
0400
0000
0000
0780
0780
0780
0DC0
0CC0
0CC0
18E0
1860
1860
3870
3030
3FF0
7FF8
6038
6018
6018
E01C
ENDCHAR
STARTCHAR 00C2
ENCODING 194
SWIDTH 504 0
DWIDTH 14 0
BBX 14 24 0 0
BITMAP
0200
0300
0780
0CC0
0840
0000
0000
0780
0780
0780
0DC0
0CC0
0CC0
18E0
1860
1860
3870
3030
3FF0
7FF8
6038
6018
6018
E01C
ENDCHAR
STARTCHAR 00C3
ENCODING 195
SWIDTH 504 0
DWIDTH 14 0
BBX 14 23 0 0
BITMAP
0E60
1FE0
19C0
0000
0000
0000
0780
0780
0780
0DC0
0CC0
0CC0
18E0
1860
1860
3870
3030
3FF0
7FF8
6038
6018
6018
E01C
ENDCHAR
STARTCHAR 00C4
ENCODING 196
SWIDTH 504 0
DWIDTH 14 0
BBX 14 22 0 0
BITMAP
0CC0
1CE0
0CC0
0000
0000
0780
0780
0780
0DC0
0CC0
0CC0
18E0
1860
1860
3870
3030
3FF0
7FF8
6038
6018
6018
E01C
ENDCHAR
STARTCHAR 00C5
ENCODING 197
SWIDTH 504 0
DWIDTH 14 0
BBX 14 21 0 0
BITMAP
0780
0480
0CC0
0480
0780
0780
0780
0CC0
0CC0
0CC0
1860
1860
1860
3870
3030
3FF0
7FF8
6038
6018
6018
E01C
ENDCHAR
STARTCHAR 00C6
ENCODING 198
SWIDTH 504 0
DWIDTH 14 0
BBX 13 17 1 0
BITMAP
07F0
07F0
0F80
0F80
1B80
1B80
1B80
3BE0
33E0
3380
3380
7F80
7F80
6380
E380
C3F8
C3F8
ENDCHAR
STARTCHAR 00C7
ENCODING 199
SWIDTH 504 0
DWIDTH 14 0
BBX 12 22 1 -5
BITMAP
07C0
1FF0
3820
7000
7000
6000
E000
E000
E000
E000
E000
6000
6000
7000
3820
1FF0
07E0
0300
0380
0180
0780
0780
ENDCHAR
STARTCHAR 00C8
ENCODING 200
SWIDTH 504 0
DWIDTH 14 0
BBX 10 24 3 0
BITMAP
1000
3800
1800
0C00
0400
0000
0000
FF80
FF80
C000
C000
C000
C000
C000
FF00
FF00
C000
C000
C000
C000
C000
C000
FFC0
FFC0
ENDCHAR
STARTCHAR 00C9
ENCODING 201
SWIDTH 504 0
DWIDTH 14 0
BBX 10 24 3 0
BITMAP
0400
0E00
0C00
1800
1000
0000
0000
FF80
FF80
C000
C000
C000
C000
C000
FF00
FF00
C000
C000
C000
C000
C000
C000
FFC0
FFC0
ENDCHAR
STARTCHAR 00CA
ENCODING 202
SWIDTH 504 0
DWIDTH 14 0
BBX 10 24 3 0
BITMAP
0800
1C00
3600
7700
2200
0000
0000
FF80
FF80
C000
C000
C000
C000
C000
FF00
FF00
C000
C000
C000
C000
C000
C000
FFC0
FFC0
ENDCHAR
STARTCHAR 00CB
ENCODING 203
SWIDTH 504 0
DWIDTH 14 0
BBX 10 22 3 0
BITMAP
6300
7700
6300
0000
0000
FF80
FF80
C000
C000
C000
C000
C000
FF00
FF00
C000
C000
C000
C000
C000
C000
FFC0
FFC0
ENDCHAR
STARTCHAR 00CC
ENCODING 204
SWIDTH 504 0
DWIDTH 14 0
BBX 10 24 2 0
BITMAP
0800
1800
0C00
0600
0200
0000
0000
FFC0
FFC0
0C00
0C00
0C00
0C00
0C00
0C00
0C00
0C00
0C00
0C00
0C00
0C00
0C00
FFC0
FFC0
ENDCHAR
STARTCHAR 00CD
ENCODING 205
SWIDTH 504 0
DWIDTH 14 0
BBX 10 24 2 0
BITMAP
0200
0700
0E00
1C00
0800
0000
0000
FFC0
FFC0
0C00
0C00
0C00
0C00
0C00
0C00
0C00
0C00
0C00
0C00
0C00
0C00
0C00
FFC0
FFC0
ENDCHAR
STARTCHAR 00CE
ENCODING 206
SWIDTH 504 0
DWIDTH 14 0
BBX 10 24 2 0
BITMAP
0800
0C00
1E00
3300
2100
0000
0000
FFC0
FFC0
0C00
0C00
0C00
0C00
0C00
0C00
0C00
0C00
0C00
0C00
0C00
0C00
0C00
FFC0
FFC0
ENDCHAR
STARTCHAR 00CF
ENCODING 207
SWIDTH 504 0
DWIDTH 14 0
BBX 10 22 2 0
BITMAP
3300
7380
3300
0000
0000
FFC0
FFC0
0C00
0C00
0C00
0C00
0C00
0C00
0C00
0C00
0C00
0C00
0C00
0C00
0C00
FFC0
FFC0
ENDCHAR
STARTCHAR 00D0
ENCODING 208
SWIDTH 504 0
DWIDTH 14 0
BBX 13 17 0 0
BITMAP
3F00
3FC0
30E0
3070
3030
3038
3038
FE38
FE18
3038
3038
3038
3030
3070
30E0
3FC0
3F00
ENDCHAR
STARTCHAR 00D1
ENCODING 209
SWIDTH 504 0
DWIDTH 14 0
BBX 10 23 2 0
BITMAP
3980
7F80
6700
0000
0000
0000
C0C0
E0C0
E0C0
F0C0
F0C0
D8C0
D8C0
CCC0
CCC0
C6C0
C6C0
C3C0
C3C0
C1C0
C1C0
C1C0
C0C0
ENDCHAR
STARTCHAR 00D2
ENCODING 210
SWIDTH 504 0
DWIDTH 14 0
BBX 12 24 1 0
BITMAP
0400
0C00
0600
0300
0100
0000
0000
1F80
3FC0
70E0
6060
E070
C030
C030
C030
C030
C030
C030
C030
E070
6060
70E0
3FC0
1F80
ENDCHAR
STARTCHAR 00D3
ENCODING 211
SWIDTH 504 0
DWIDTH 14 0
BBX 12 24 1 0
BITMAP
0100
0380
0700
0E00
0400
0000
0000
1F80
3FC0
70E0
6060
E070
C030
C030
C030
C030
C030
C030
C030
E070
6060
70E0
3FC0
1F80
ENDCHAR
STARTCHAR 00D4
ENCODING 212
SWIDTH 504 0
DWIDTH 14 0
BBX 12 24 1 0
BITMAP
0400
0600
0F00
1980
1080
0000
0000
1F80
3FC0
70E0
6060
E070
C030
C030
C030
C030
C030
C030
C030
E070
6060
70E0
3FC0
1F80
ENDCHAR
STARTCHAR 00D5
ENCODING 213
SWIDTH 504 0
DWIDTH 14 0
BBX 12 23 1 0
BITMAP
1CC0
3FC0
3380
0000
0000
0000
1F80
3FC0
70E0
6060
E070
C030
C030
C030
C030
C030
C030
C030
E070
6060
70E0
3FC0
1F80
ENDCHAR
STARTCHAR 00D6
ENCODING 214
SWIDTH 504 0
DWIDTH 14 0
BBX 12 22 1 0
BITMAP
1980
39C0
1980
0000
0000
1F80
3FC0
70E0
6060
E070
C030
C030
C030
C030
C030
C030
C030
E070
6060
70E0
3FC0
1F80
ENDCHAR
STARTCHAR 00D7
ENCODING 215
SWIDTH 504 0
DWIDTH 14 0
BBX 10 10 2 2
BITMAP
4080
E1C0
7380
3F00
1E00
1E00
3F00
7380
E1C0
4080
ENDCHAR
STARTCHAR 00D8
ENCODING 216
SWIDTH 504 0
DWIDTH 14 0
BBX 12 19 1 -1
BITMAP
0040
0FE0
3FC0
70E0
61E0
E1F0
C330
C330
C630
C630
CC30
CC30
D830
F870
7860
70E0
7FC0
7F00
6000
ENDCHAR
STARTCHAR 00D9
ENCODING 217
SWIDTH 504 0
DWIDTH 14 0
BBX 12 24 1 0
BITMAP
0800
0C00
0600
0300
0100
0000
0000
E070
E070
E070
E070
E070
E070
E070
E070
E070
E070
E070
E070
E070
6060
70E0
3FC0
1F80
ENDCHAR
STARTCHAR 00DA
ENCODING 218
SWIDTH 504 0
DWIDTH 14 0
BBX 12 24 1 0
BITMAP
0100
0380
0700
0E00
0400
0000
0000
E070
E070
E070
E070
E070
E070
E070
E070
E070
E070
E070
E070
E070
6060
70E0
3FC0
1F80
ENDCHAR
STARTCHAR 00DB
ENCODING 219
SWIDTH 504 0
DWIDTH 14 0
BBX 12 24 1 0
BITMAP
0400
0600
0F00
1980
1080
0000
0000
E070
E070
E070
E070
E070
E070
E070
E070
E070
E070
E070
E070
E070
6060
70E0
3FC0
1F80
ENDCHAR
STARTCHAR 00DC
ENCODING 220
SWIDTH 504 0
DWIDTH 14 0
BBX 12 22 1 0
BITMAP
1980
39C0
1980
0000
0000
E070
E070
E070
E070
E070
E070
E070
E070
E070
E070
E070
E070
E070
6060
70E0
3FC0
1F80
ENDCHAR
STARTCHAR 00DD
ENCODING 221
SWIDTH 504 0
DWIDTH 14 0
BBX 12 24 1 0
BITMAP
0100
0380
0700
0E00
0400
0000
0000
C030
E030
E070
6060
70E0
38C0
39C0
1F80
0F00
0F00
0600
0600
0600
0600
0600
0600
0600
ENDCHAR
STARTCHAR 00DE
ENCODING 222
SWIDTH 504 0
DWIDTH 14 0
BBX 11 17 2 0
BITMAP
C000
C000
C000
FF00
FFC0
C1C0
C0E0
C0E0
C0E0
C0C0
C1C0
FF80
FF00
C000
C000
C000
C000
ENDCHAR
STARTCHAR 00DF
ENCODING 223
SWIDTH 504 0
DWIDTH 14 0
BBX 11 19 2 0
BITMAP
3E00
7F00
6380
E180
C180
C380
C700
CE00
CC00
CE00
CF00
C780
C1E0
C0E0
C060
C060
C8E0
CFE0
CF80
ENDCHAR
STARTCHAR 00E0
ENCODING 224
SWIDTH 504 0
DWIDTH 14 0
BBX 10 20 2 0
BITMAP
1000
1800
0C00
0600
0200
0000
0000
7F00
7F80
01C0
00C0
00C0
3FC0
7FC0
E0C0
C0C0
C0C0
E0C0
FFC0
3FC0
ENDCHAR
STARTCHAR 00E1
ENCODING 225
SWIDTH 504 0
DWIDTH 14 0
BBX 10 20 2 0
BITMAP
0200
0700
0E00
0C00
0800
0000
0000
7F00
7F80
01C0
00C0
00C0
3FC0
7FC0
E0C0
C0C0
C0C0
E0C0
FFC0
3FC0
ENDCHAR
STARTCHAR 00E2
ENCODING 226
SWIDTH 504 0
DWIDTH 14 0
BBX 10 20 2 0
BITMAP
0400
0E00
1E00
3300
2100
0000
0000
7F00
7F80
01C0
00C0
00C0
3FC0
7FC0
E0C0
C0C0
C0C0
E0C0
FFC0
3FC0
ENDCHAR
STARTCHAR 00E3
ENCODING 227
SWIDTH 504 0
DWIDTH 14 0
BBX 10 19 2 0
BITMAP
3980
7F80
6700
0000
0000
0000
7F00
7F80
01C0
00C0
00C0
3FC0
7FC0
E0C0
C0C0
C0C0
E0C0
FFC0
3FC0
ENDCHAR
STARTCHAR 00E4
ENCODING 228
SWIDTH 504 0
DWIDTH 14 0
BBX 10 18 2 0
BITMAP
3300
7380
3300
0000
0000
7F00
7F80
01C0
00C0
00C0
3FC0
7FC0
E0C0
C0C0
C0C0
E0C0
FFC0
3FC0
ENDCHAR
STARTCHAR 00E5
ENCODING 229
SWIDTH 504 0
DWIDTH 14 0
BBX 10 19 2 0
BITMAP
1E00
1200
3300
1200
1E00
0000
7F00
7F80
01C0
00C0
00C0
3FC0
7FC0
E0C0
C0C0
C0C0
E0C0
FFC0
3FC0
ENDCHAR
STARTCHAR 00E6
ENCODING 230
SWIDTH 504 0
DWIDTH 14 0
BBX 12 13 1 0
BITMAP
79E0
7DE0
0F30
0630
0630
3FF0
7FF0
E600
C600
C700
E710
7FF0
3CF0
ENDCHAR
STARTCHAR 00E7
ENCODING 231
SWIDTH 504 0
DWIDTH 14 0
BBX 12 18 1 -5
BITMAP
0FE0
1FE0
3820
7000
6000
E000
E000
E000
6000
7000
3820
1FF0
0FE0
0200
0700
0380
0F80
0F00
ENDCHAR
STARTCHAR 00E8
ENCODING 232
SWIDTH 504 0
DWIDTH 14 0
BBX 12 20 1 0
BITMAP
0800
0C00
0600
0300
0100
0000
0000
0F80
3FC0
70E0
6060
E070
FFF0
FFF0
C000
E000
6000
7820
3FE0
0FC0
ENDCHAR
STARTCHAR 00E9
ENCODING 233
SWIDTH 504 0
DWIDTH 14 0
BBX 12 20 1 0
BITMAP
0100
0380
0700
0600
0400
0000
0000
0F80
3FC0
70E0
6060
E070
FFF0
FFF0
C000
E000
6000
7820
3FE0
0FC0
ENDCHAR
STARTCHAR 00EA
ENCODING 234
SWIDTH 504 0
DWIDTH 14 0
BBX 12 20 1 0
BITMAP
0200
0700
0F80
1980
1080
0000
0000
0F80
3FC0
70E0
6060
E070
FFF0
FFF0
C000
E000
6000
7820
3FE0
0FC0
ENDCHAR
STARTCHAR 00EB
ENCODING 235
SWIDTH 504 0
DWIDTH 14 0
BBX 12 18 1 0
BITMAP
18C0
19C0
18C0
0000
0000
0F80
3FC0
70E0
6060
E070
FFF0
FFF0
C000
E000
6000
7820
3FE0
0FC0
ENDCHAR
STARTCHAR 00EC
ENCODING 236
SWIDTH 504 0
DWIDTH 14 0
BBX 10 20 2 0
BITMAP
1000
3000
1800
0C00
0400
0000
0000
FC00
FC00
1C00
1C00
1C00
1C00
1C00
1C00
1C00
1C00
0C00
0FC0
07C0
ENDCHAR
STARTCHAR 00ED
ENCODING 237
SWIDTH 504 0
DWIDTH 14 0
BBX 10 20 2 0
BITMAP
0400
0E00
1C00
3800
1000
0000
0000
FC00
FC00
1C00
1C00
1C00
1C00
1C00
1C00
1C00
1C00
0C00
0FC0
07C0
ENDCHAR
STARTCHAR 00EE
ENCODING 238
SWIDTH 504 0
DWIDTH 14 0
BBX 10 20 2 0
BITMAP
0800
1800
3C00
6600
4200
0000
0000
FC00
FC00
1C00
1C00
1C00
1C00
1C00
1C00
1C00
1C00
0C00
0FC0
07C0
ENDCHAR
STARTCHAR 00EF
ENCODING 239
SWIDTH 504 0
DWIDTH 14 0
BBX 10 18 2 0
BITMAP
6600
E700
6600
0000
0000
FC00
FC00
1C00
1C00
1C00
1C00
1C00
1C00
1C00
1C00
0C00
0FC0
07C0
ENDCHAR
STARTCHAR 00F0
ENCODING 240
SWIDTH 504 0
DWIDTH 14 0
BBX 11 19 2 0
BITMAP
0800
0EC0
0FE0
1F80
1B80
0180
0180
3FC0
7FC0
E1C0
C0C0
C0C0
C0C0
C0C0
C1C0
C180
E380
7F00
3E00
ENDCHAR
STARTCHAR 00F1
ENCODING 241
SWIDTH 504 0
DWIDTH 14 0
BBX 10 19 2 0
BITMAP
3980
7F80
6700
0000
0000
0000
7F00
FF80
C1C0
C1C0
C0C0
C0C0
C0C0
C0C0
C0C0
C0C0
C0C0
C0C0
C0C0
ENDCHAR
STARTCHAR 00F2
ENCODING 242
SWIDTH 504 0
DWIDTH 14 0
BBX 12 20 1 0
BITMAP
0400
0E00
0600
0300
0100
0000
0000
0F00
3FC0
70E0
6060
E070
E070
E070
E070
E070
6060
70E0
3FC0
0F00
ENDCHAR
STARTCHAR 00F3
ENCODING 243
SWIDTH 504 0
DWIDTH 14 0
BBX 12 20 1 0
BITMAP
0100
0380
0700
0E00
0400
0000
0000
0F00
3FC0
70E0
6060
E070
E070
E070
E070
E070
6060
70E0
3FC0
0F00
ENDCHAR
STARTCHAR 00F4
ENCODING 244
SWIDTH 504 0
DWIDTH 14 0
BBX 12 20 1 0
BITMAP
0400
0600
0F00
1980
1080
0000
0000
0F00
3FC0
70E0
6060
E070
E070
E070
E070
E070
6060
70E0
3FC0
0F00
ENDCHAR
STARTCHAR 00F5
ENCODING 245
SWIDTH 504 0
DWIDTH 14 0
BBX 12 19 1 0
BITMAP
1CC0
3FC0
3380
0000
0000
0000
0F00
3FC0
70E0
6060
E070
E070
E070
E070
E070
6060
70E0
3FC0
0F00
ENDCHAR
STARTCHAR 00F6
ENCODING 246
SWIDTH 504 0
DWIDTH 14 0
BBX 12 18 1 0
BITMAP
1980
39C0
1980
0000
0000
0F00
3FC0
70E0
6060
E070
E070
E070
E070
E070
6060
70E0
3FC0
0F00
ENDCHAR
STARTCHAR 00F7
ENCODING 247
SWIDTH 504 0
DWIDTH 14 0
BBX 12 12 1 1
BITMAP
0600
0F00
0600
0000
0000
FFF0
FFF0
0000
0000
0600
0F00
0600
ENDCHAR
STARTCHAR 00F8
ENCODING 248
SWIDTH 504 0
DWIDTH 14 0
BBX 12 15 1 -1
BITMAP
0020
0F20
3FE0
70E0
61E0
E3F0
E370
E670
EC70
F870
7860
70E0
7FC0
4F00
4000
ENDCHAR
STARTCHAR 00F9
ENCODING 249
SWIDTH 504 0
DWIDTH 14 0
BBX 10 20 2 0
BITMAP
1000
1800
0C00
0600
0200
0000
0000
C0C0
C0C0
C0C0
C0C0
C0C0
C0C0
C0C0
C0C0
C0C0
E0C0
E0C0
7FC0
3FC0
ENDCHAR
STARTCHAR 00FA
ENCODING 250
SWIDTH 504 0
DWIDTH 14 0
BBX 10 20 2 0
BITMAP
0200
0700
0E00
1C00
0800
0000
0000
C0C0
C0C0
C0C0
C0C0
C0C0
C0C0
C0C0
C0C0
C0C0
E0C0
E0C0
7FC0
3FC0
ENDCHAR
STARTCHAR 00FB
ENCODING 251
SWIDTH 504 0
DWIDTH 14 0
BBX 10 20 2 0
BITMAP
0800
0C00
1E00
3300
2100
0000
0000
C0C0
C0C0
C0C0
C0C0
C0C0
C0C0
C0C0
C0C0
C0C0
E0C0
E0C0
7FC0
3FC0
ENDCHAR
STARTCHAR 00FC
ENCODING 252
SWIDTH 504 0
DWIDTH 14 0
BBX 10 18 2 0
BITMAP
3300
7380
3300
0000
0000
C0C0
C0C0
C0C0
C0C0
C0C0
C0C0
C0C0
C0C0
C0C0
E0C0
E0C0
7FC0
3FC0
ENDCHAR
STARTCHAR 00FD
ENCODING 253
SWIDTH 504 0
DWIDTH 14 0
BBX 12 25 1 -5
BITMAP
0100
0380
0700
0600
0400
0000
0000
E070
6070
7060
7060
30E0
30C0
38C0
18C0
1D80
0D80
0D80
0700
0700
0700
0600
0E00
FC00
F000
ENDCHAR
STARTCHAR 00FE
ENCODING 254
SWIDTH 504 0
DWIDTH 14 0
BBX 11 24 2 -5
BITMAP
C000
C000
C000
C000
C000
C000
DF00
FF80
E1C0
C0C0
C0E0
C0E0
C0E0
C0E0
C0E0
C0C0
E1C0
FF80
DF00
C000
C000
C000
C000
C000
ENDCHAR
STARTCHAR 00FF
ENCODING 255
SWIDTH 504 0
DWIDTH 14 0
BBX 12 23 1 -5
BITMAP
18C0
1DC0
18C0
0000
0000
E070
6070
7060
7060
30E0
30C0
38C0
18C0
1D80
0D80
0D80
0700
0700
0700
0600
0E00
FC00
F000
ENDCHAR
STARTCHAR 0152
ENCODING 140
SWIDTH 504 0
DWIDTH 14 0
BBX 13 17 1 0
BITMAP
1FF0
3FF0
7380
6380
E380
C380
C380
C3E0
C3E0
C380
C380
C380
C380
E380
7380
3FF8
1FF8
ENDCHAR
STARTCHAR 0153
ENCODING 156
SWIDTH 504 0
DWIDTH 14 0
BBX 12 13 1 0
BITMAP
38E0
7DF0
6F30
C730
C730
C7F0
C7F0
C600
C700
C700
6790
7DF0
38F0
ENDCHAR
STARTCHAR 0160
ENCODING 138
SWIDTH 504 0
DWIDTH 14 0
BBX 10 24 2 0
BITMAP
1100
3B80
1F00
0E00
0400
0000
0000
1F00
7FC0
E080
C000
C000
E000
F000
7C00
1F00
0780
01C0
00C0
00C0
00C0
C1C0
FF80
7F00
ENDCHAR
STARTCHAR 0161
ENCODING 154
SWIDTH 504 0
DWIDTH 14 0
BBX 10 20 2 0
BITMAP
2100
3300
1F00
0E00
0400
0000
0000
3F80
7F80
E080
C000
E000
7C00
3F00
0780
01C0
00C0
C1C0
FF80
7F00
ENDCHAR
STARTCHAR 0178
ENCODING 159
SWIDTH 504 0
DWIDTH 14 0
BBX 12 22 1 0
BITMAP
19C0
39C0
19C0
0000
0000
C030
E030
E070
6060
70E0
38C0
39C0
1F80
0F00
0F00
0600
0600
0600
0600
0600
0600
0600
ENDCHAR
STARTCHAR 017D
ENCODING 142
SWIDTH 504 0
DWIDTH 14 0
BBX 11 24 2 0
BITMAP
2100
3300
1E00
0C00
0800
0000
0000
FFE0
FFE0
01C0
0180
0380
0700
0600
0E00
1C00
1800
3800
3000
7000
6000
C000
FFE0
FFE0
ENDCHAR
STARTCHAR 017E
ENCODING 158
SWIDTH 504 0
DWIDTH 14 0
BBX 10 20 2 0
BITMAP
2100
3300
1E00
0C00
0800
0000
0000
FFC0
FFC0
0380
0300
0700
0E00
1C00
1800
3000
7000
6000
FFC0
FFC0
ENDCHAR
STARTCHAR 0192
ENCODING 131
SWIDTH 504 0
DWIDTH 14 0
BBX 13 24 0 -5
BITMAP
01F8
03F8
0708
0600
0600
0600
3FF0
3FF0
0600
0600
0600
0600
0600
0600
0600
0600
0600
0600
0600
0E00
0E00
0C00
7C00
F000
ENDCHAR
STARTCHAR 02C6
ENCODING 136
SWIDTH 504 0
DWIDTH 14 0
BBX 6 5 4 15
BITMAP
20
30
78
CC
84
ENDCHAR
STARTCHAR 02DC
ENCODING 152
SWIDTH 504 0
DWIDTH 14 0
BBX 8 3 3 16
BITMAP
73
FF
CE
ENDCHAR
STARTCHAR 2013
ENCODING 150
SWIDTH 504 0
DWIDTH 14 0
BBX 10 2 2 7
BITMAP
FFC0
FFC0
ENDCHAR
STARTCHAR 2014
ENCODING 151
SWIDTH 504 0
DWIDTH 14 0
BBX 14 2 0 7
BITMAP
FFFC
FFFC
ENDCHAR
STARTCHAR 2018
ENCODING 145
SWIDTH 504 0
DWIDTH 14 0
BBX 6 8 4 9
BITMAP
0C
3C
70
60
F0
F0
F0
70
ENDCHAR
STARTCHAR 2019
ENCODING 146
SWIDTH 504 0
DWIDTH 14 0
BBX 6 8 4 9
BITMAP
38
3C
3C
3C
18
38
F0
C0
ENDCHAR
STARTCHAR 201A
ENCODING 130
SWIDTH 504 0
DWIDTH 14 0
BBX 6 8 4 -4
BITMAP
38
3C
3C
3C
18
38
F0
C0
ENDCHAR
STARTCHAR 201C
ENCODING 147
SWIDTH 504 0
DWIDTH 14 0
BBX 12 7 1 10
BITMAP
1870
78F0
61C0
E1C0
F1C0
F1C0
61C0
ENDCHAR
STARTCHAR 201D
ENCODING 148
SWIDTH 504 0
DWIDTH 14 0
BBX 12 7 1 10
BITMAP
3860
38F0
38F0
38F0
3860
F1E0
C180
ENDCHAR
STARTCHAR 201E
ENCODING 132
SWIDTH 504 0
DWIDTH 14 0
BBX 12 7 1 -3
BITMAP
3860
38F0
38F0
3870
3860
F1E0
C180
ENDCHAR
STARTCHAR 2020
ENCODING 134
SWIDTH 504 0
DWIDTH 14 0
BBX 10 21 2 -4
BITMAP
0C00
0C00
0C00
0C00
0C00
FFC0
FFC0
0C00
0C00
0C00
0C00
0C00
0C00
0C00
0C00
0C00
0C00
0C00
0C00
0C00
0C00
ENDCHAR
STARTCHAR 2021
ENCODING 135
SWIDTH 504 0
DWIDTH 14 0
BBX 10 21 2 -4
BITMAP
0C00
0C00
0C00
0C00
0C00
FFC0
FFC0
0C00
0C00
0C00
0C00
0C00
FFC0
FFC0
0C00
0C00
0C00
0C00
0C00
0C00
0C00
ENDCHAR
STARTCHAR 2022
ENCODING 149
SWIDTH 504 0
DWIDTH 14 0
BBX 8 8 3 5
BITMAP
3C
7E
FF
FF
FF
FF
7E
3C
ENDCHAR
STARTCHAR 2026
ENCODING 133
SWIDTH 504 0
DWIDTH 14 0
BBX 12 4 1 0
BITMAP
C630
E670
E670
C630
ENDCHAR
STARTCHAR 2030
ENCODING 137
SWIDTH 504 0
DWIDTH 14 0
BBX 14 17 0 0
BITMAP
7000
7800
5808
D818
D860
59C0
7B00
7E00
1800
6E38
4F78
0B68
096C
096C
0B68
0F78
0E38
ENDCHAR
STARTCHAR 2039
ENCODING 139
SWIDTH 504 0
DWIDTH 14 0
BBX 5 11 4 2
BITMAP
08
18
38
70
60
E0
60
70
38
18
08
ENDCHAR
STARTCHAR 203A
ENCODING 155
SWIDTH 504 0
DWIDTH 14 0
BBX 5 11 5 2
BITMAP
80
C0
E0
70
30
38
30
70
E0
C0
80
ENDCHAR
STARTCHAR 20AC
ENCODING 128
SWIDTH 504 0
DWIDTH 14 0
BBX 12 17 1 0
BITMAP
03E0
0FE0
1C20
1800
3800
3000
FFC0
FFC0
3000
3000
FF80
FF80
3000
3800
1C10
0FF0
07E0
ENDCHAR
STARTCHAR 2122
ENCODING 153
SWIDTH 504 0
DWIDTH 14 0
BBX 13 7 0 10
BITMAP
FD98
31B8
31A8
3168
3368
3308
3308
ENDCHAR
ENDFONT
